# xmcd
# 
# Track frame offsets:
#     150
#     16397
#     29785
#     42930
#     58347
#     71312
#     88647
#     101529
#     114085
#     125860
#     137952
#     149845
#     166690
#     180802
#     199940
#     208470
#     217940
#     233115
#     243042
#     255675
#     267965
#     278250
#     294052
#     308100
#     319320
# 
# Disc length: 4432
# 
# Revision: 3
# Processed by: cddbd v1.5.2PL0 Copyright (c) Steve Scherf et al.
# Submitted via: fre:ac v1.0.17
# 
DISCID=70114e19
DTITLE=Various Artist - Mega Soul
DYEAR=1998
DGENRE=Soul
TTITLE0=Nina Simone - My Baby Just Cares For Me
TTITLE1=Ben E King - Stand By Me
TTITLE2=Percy Sledge - When A Man Loves A Woman
TTITLE3=Sarah Vaughan - Stormy Weather
TTITLE4=Loleatta Holloway - I 've Been Loving You
TTITLE5=Ray Charles and Dee Dee Bridgewater - Precious Thing
TTITLE6=Leroy Hutson - The Ghetto '74
TTITLE7=Sam and Dave - Soul Man
TTITLE8=Meters - Stretch Your Rubber Band
TTITLE9=Eddie Floyd - Knock On Wood
TTITLE10=Lynn Collins - Think (About It)
TTITLE11=Temptations - Just My Imagination
TTITLE12=Marvin Gaye - What's Going On
TTITLE13=James Brown - It Is A Man's Man's World
TTITLE14=Chris Kenner - I Like It Like That
TTITLE15=Sam Cooke - Wonderful World
TTITLE16=Mary Wells - My Guy
TTITLE17=Drifters - Save The Last Dance For Me
TTITLE18=Martha Reeves - Jimmy Mack
TTITLE19=Lee Dorsey - Working In A Coalmine
TTITLE20=Gene Chandler - Duke Of Earl
TTITLE21=Ike and Tina Turner - Living For The City
TTITLE22=Barry White - Sheet Music
TTITLE23=Platters - Smoke Gets In Your Eyes
TTITLE24=Jackson Five - Big Boy
EXTD=
EXTT0=
EXTT1=
EXTT2=
EXTT3=
EXTT4=
EXTT5=
EXTT6=
EXTT7=
EXTT8=
EXTT9=
EXTT10=
EXTT11=
EXTT12=
EXTT13=
EXTT14=
EXTT15=
EXTT16=
EXTT17=
EXTT18=
EXTT19=
EXTT20=
EXTT21=
EXTT22=
EXTT23=
EXTT24=
PLAYORDER=
